# xmcd
#
# Track frame offsets:
#	150
#	9933
#	19898
#	30266
#	39704
#	51035
#	60080
#	69491
#	86870
#	96320
#	108439
#	118965
#	128793
#	138907
#	151256
#	162532
#	178495
#	204859
#	223231
#	243353
#
# Disc length: 3345 seconds
#
# Revision: 3
# Processed by: cddbd v1.5.2PL0 Copyright (c) Steve Scherf et al.
# Submitted via: audiograbber 1.83.01
#
DISCID=150d0f14
DTITLE=Chet Atkins - The Essential Chet Atkins [Disc 2]
DYEAR=2007
DGENRE=Country
TTITLE0=Boo Boo Stick Beat
TTITLE1=Hot Mocking Bird
TTITLE2=The Slop
TTITLE3=Man Of Mystery
TTITLE4=Wheels
TTITLE5=Teen Scene
TTITLE6=Freight Train
TTITLE7=Satan's Doll
TTITLE8=Yakety Axe
TTITLE9=A Taste Of Honey
TTITLE10=Drive In
TTITLE11=Get On With It
TTITLE12=Cannonball Rag
TTITLE13=Take Five
TTITLE14=Is Anything Better Than This (with Merle Travis)
TTITLE15=It's Been A Long, Long Time (with Les Paul)
TTITLE16=Polka Dots And Moonbeams (with Lenny Breau)
TTITLE17=Poor Boy Blues (with Mark Knopfler)
TTITLE18=Sneakin' Around (with Jerry Reed)
TTITLE19=Big Foot
EXTD=YEAR: 2007
EXTT0=
EXTT1=
EXTT2=
EXTT3=
EXTT4=
EXTT5=
EXTT6=
EXTT7=
EXTT8=
EXTT9=
EXTT10=
EXTT11=
EXTT12=
EXTT13=
EXTT14=
EXTT15=
EXTT16=
EXTT17=
EXTT18=
EXTT19=
PLAYORDER=
